<?xml version="1.0" encoding="utf-8"?>
<!-- Generator: Adobe Illustrator 16.0.0, SVG Export Plug-In . SVG Version: 6.00 Build 0)  -->
<!DOCTYPE svg PUBLIC "-//W3C//DTD SVG 1.1//EN" "http://www.w3.org/Graphics/SVG/1.1/DTD/svg11.dtd">
<svg version="1.1" id="Logo" xmlns="http://www.w3.org/2000/svg" xmlns:xlink="http://www.w3.org/1999/xlink" x="0px" y="0px"
	 width="800px" height="394.481px" viewBox="0 0 800 394.481" enable-background="new 0 0 800 394.481" xml:space="preserve">
<g>
	<path fill="#00B2BD" d="M345.144,133.414c-1.798-14.711-5.521-28.808-12.132-41.958c-11.095-22.074-27.411-39.69-47.573-53.82
		c-21.72-15.221-45.801-24.136-72.33-24.344c-18.747-0.147-37.093,3.34-54.608,10.931c-17.742,7.691-33.663,17.955-48.067,30.708
		c-27.407,24.268-45.601,53.783-51.314,90.382c-0.58,3.719-1.243,31.597,1.036,42.281c-0.031,0.509-0.035,1.006,0.053,1.489
		c0.496,2.604,1.212,5.169,1.937,7.72c1.814,6.317,3.158,12.836,5.644,18.886c5.008,12.232,10.469,24.313,10.854,37.782
		c0.222,7.676-0.556,15.353-6.19,21.429c-8.234,8.879-16.402,17.823-24.845,26.498c-9.865,10.142-20.12,19.909-29.965,30.066
		c-6.383,6.585-7.224,16.128-3.153,24.417c5.834,11.863,15.388,20.034,26.828,25.636c13.714,6.728,25.181,5.472,34.025-8.461
		c11.589-18.249,23.876-36.065,35.303-54.411c8.001-12.852,19.066-19.441,34.056-19.917c13.164-0.428,25.721,3.84,38.681,4.804
		c6.157,0.459,12.333,0.551,18.51,0.679c7.735,2.018,40.814-7.04,44.958-8.766c15.77-6.596,30.464-14.966,43.21-26.568
		c16.235-14.787,28.499-32.414,38.234-51.985c8.551-17.177,14.269-35.274,16.517-54.255
		C345.958,153.014,345.096,143.164,345.144,133.414z"/>
	<path fill-rule="evenodd" clip-rule="evenodd" fill="#FFFFFF" d="M297.709,46.307c0,0-14.729-4.188-38.268-6.353
		c0,0,17.474-1.01,30.323-0.29C289.765,39.665,297.129,45.874,297.709,46.307z"/>
	<path fill-rule="evenodd" clip-rule="evenodd" fill="#00B2BD" d="M258.699,39.862c0,0,145.587-20.798,241.708,89.938
		c0,0-20.798-10.68-42.72-6.184C457.688,123.617,399.789,42.672,258.699,39.862z"/>
	<g>
		<path fill="#FFFFFF" d="M80.29,107.425c6.822-1.748,17.612-2.856,27.925-2.856c9.521,0,20.627,1.587,28.4,7.141
			c7.141,4.916,11.585,12.373,11.585,22.688c0,13.489-6.188,23.644-14.597,30.148c-8.729,6.824-21.105,9.837-34.116,9.837
			c-3.807,0-6.98-0.316-9.36-0.637l-7.299,38.56H60.453L80.29,107.425z M93.618,155.185c2.38,0.475,4.918,0.793,8.726,0.793
			c13.805,0,22.849-8.886,22.849-19.516c0-10.313-7.457-13.649-16.343-13.649c-4.284,0-7.301,0.321-9.205,0.795L93.618,155.185z"/>
		<path fill="#FFFFFF" d="M141.367,212.306l14.755-77.589h22.849l-14.758,77.589H141.367z M159.297,113.929
			c0.158-7.773,6.188-13.012,13.167-13.012c6.665,0,11.425,4.444,11.425,11.267c0,8.096-6.188,12.854-13.486,12.854
			C164.055,125.038,159.297,120.753,159.297,113.929z"/>
		<path fill="#FFFFFF" d="M177.061,212.306l9.837-52.362c1.906-9.837,3.175-18.405,4.124-25.227h20.311l-1.585,12.85h0.316
			c7.299-10.155,16.978-14.597,27.293-14.597c12.691,0,19.832,7.777,19.832,21.105c0,3.489-0.635,9.36-1.27,13.168l-8.567,45.063
			h-22.849l8.091-43.002c0.477-2.698,0.795-5.869,0.795-8.726c0-5.393-1.904-9.203-7.617-9.203c-7.457,0-16.183,9.36-19.358,26.499
			l-6.504,34.432H177.061z"/>
		<path fill="#FFFFFF" d="M265.11,223.093c4.284,2.539,13.803,4.286,20.309,4.286c11.425,0,19.992-5.077,23.168-20.627l1.269-6.504
			h-0.32c-6.029,7.773-13.01,11.422-22.212,11.422c-15.393,0-24.755-12.536-24.913-27.607c0-25.706,18.249-51.095,52.048-51.095
			c10.948,0,20.625,1.908,28.716,5.395l-11.74,63.945c-2.696,14.281-6.98,26.977-16.343,34.434
			c-8.41,6.662-19.675,8.726-29.99,8.726c-10.313,0-19.99-1.902-25.227-4.923L265.11,223.093z M318.421,151.85
			c-1.745-0.79-5.076-1.427-8.249-1.427c-13.805,0-23.644,15.393-23.644,30.148c0,7.773,3.491,13.486,10.474,13.486
			c7.457,0,15.076-8.247,17.456-21.417L318.421,151.85z"/>
	</g>
</g>
<g>
	<g>
		<path fill="#FF8D1A" d="M367.779,107.425c6.82-1.748,17.61-2.856,27.926-2.856c9.521,0,20.627,1.587,28.404,7.141
			c7.137,4.916,11.581,12.373,11.581,22.688c0,13.489-6.188,23.644-14.598,30.148c-8.727,6.824-21.102,9.837-34.113,9.837
			c-3.812,0-6.982-0.316-9.363-0.637l-7.298,38.56h-22.375L367.779,107.425z M381.108,155.185c2.38,0.475,4.918,0.793,8.726,0.793
			c13.803,0,22.849-8.886,22.849-19.516c0-10.313-7.456-13.649-16.345-13.649c-4.282,0-7.295,0.321-9.2,0.795L381.108,155.185z"/>
		<path fill="#FF8D1A" d="M509.924,212.306l9.837-52.362c1.906-9.837,3.171-18.405,4.128-25.227h20.307l-1.585,12.85h0.316
			c7.298-10.155,16.981-14.597,27.293-14.597c12.691,0,19.836,7.777,19.836,21.105c0,3.489-0.637,9.36-1.269,13.168l-8.572,45.063
			h-22.85l8.094-43.002c0.479-2.698,0.795-5.869,0.795-8.726c0-5.393-1.906-9.203-7.619-9.203c-7.457,0-16.183,9.36-19.354,26.499
			l-6.508,34.432H509.924z"/>
		<path fill="#FF8D1A" d="M597.974,223.093c4.282,2.539,13.803,4.286,20.307,4.286c11.427,0,19.994-5.077,23.165-20.627l1.273-6.504
			h-0.316c-6.033,7.773-13.016,11.422-22.216,11.422c-15.393,0-24.755-12.536-24.913-27.607c0-25.706,18.246-51.095,52.043-51.095
			c10.948,0,20.627,1.908,28.721,5.395l-11.738,63.945c-2.701,14.281-6.982,26.977-16.35,34.434
			c-8.405,6.662-19.67,8.726-29.985,8.726c-10.312,0-19.99-1.902-25.229-4.923L597.974,223.093z M651.287,151.85
			c-1.748-0.79-5.081-1.427-8.252-1.427c-13.807,0-23.644,15.393-23.644,30.148c0,7.773,3.491,13.486,10.474,13.486
			c7.457,0,15.071-8.247,17.451-21.417L651.287,151.85z"/>
		<path fill="#FF8D1A" d="M741.55,105.361l-20.311,106.944h-22.845l20.311-106.944H741.55z"/>
		<path fill="#FF8D1A" d="M779.629,112.98l-4.128,21.736H792l-3.329,17.292h-16.503l-5.235,26.345
			c-0.637,3.171-1.273,7.141-1.273,9.833c0,3.812,1.59,6.508,6.509,6.508c2.063,0,4.285,0,6.346-0.316l-2.697,17.928
			c-2.854,1.111-8.567,1.746-13.486,1.746c-13.644,0-20.152-6.982-20.152-16.659c0-4.284,0.479-8.57,1.586-14.439l6.029-30.945
			h-9.837l3.175-17.292h9.995l3.175-16.343L779.629,112.98z"/>
	</g>
	<g>
		<path fill-rule="evenodd" clip-rule="evenodd" fill="#FF8D1A" d="M513.406,178.146c-1.998,22.219-24.008,38.944-45.931,35.896
			c-24.896-3.465-39.682-24.059-36.866-46.675c2.969-23.853,22.84-39.471,47.138-36.403
			C499.481,133.708,517.056,152.992,513.406,178.146z"/>
		<path fill-rule="evenodd" clip-rule="evenodd" fill="#FFFFFF" d="M504.387,166.324c0,0-1.011-25.258-23.574-28.962
			c0,0-6.06-1.01-5.05,4.712C476.465,146.058,500.347,145.443,504.387,166.324z"/>
	</g>
</g>
</svg>
